<?xml version="1.0" encoding="UTF-8"?>
<!DOCTYPE svg PUBLIC "-//W3C//DTD SVG 1.1//EN" "http://www.w3.org/Graphics/SVG/1.1/DTD/svg11.dtd">
<svg xmlns="http://www.w3.org/2000/svg" version="1.1" width="400px" height="400px" style="shape-rendering:geometricPrecision; text-rendering:geometricPrecision; image-rendering:optimizeQuality; fill-rule:evenodd; clip-rule:evenodd" xmlns:xlink="http://www.w3.org/1999/xlink">
<g><path style="opacity:0.991" fill="#03efec" d="M 181.5,-0.5 C 185.5,-0.5 189.5,-0.5 193.5,-0.5C 181.996,18.5145 169.996,37.1812 157.5,55.5C 153.829,54.8001 150.162,55.4668 146.5,57.5C 144.557,55.4744 142.391,55.4744 140,57.5C 139.667,57.1667 139.333,56.8333 139,56.5C 140.092,62.637 139.092,62.9703 136,57.5C 134.34,57.3241 132.674,57.9907 131,59.5C 130.066,56.0352 128.566,55.7019 126.5,58.5C 124.997,57.9478 123.331,57.9478 121.5,58.5C 121.688,60.1033 121.188,61.4366 120,62.5C 118.635,60.1402 116.635,58.4735 114,57.5C 113.529,59.2464 112.862,60.913 112,62.5C 111.667,61.5 111.333,60.5 111,59.5C 108.806,62.0175 106.806,61.6841 105,58.5C 103.522,61.9931 101.522,62.3264 99,59.5C 97.3141,62.022 95.9808,61.6887 95,58.5C 94,59.8333 93,59.8333 92,58.5C 91.5172,59.448 91.3505,60.448 91.5,61.5C 89.6096,61.7035 88.1096,61.0368 87,59.5C 85.984,60.6341 85.3173,60.3008 85,58.5C 82.2656,59.3617 82.0989,60.195 84.5,61C 83.1667,63 81.8333,63 80.5,61C 81.4506,60.2825 81.6172,59.4491 81,58.5C 79.6667,59.8333 78.3333,61.1667 77,62.5C 75.1697,58.8564 73.5031,59.1898 72,63.5C 71.1667,62.5 70.3333,61.5 69.5,60.5C 67.8208,61.782 65.9874,62.782 64,63.5C 63.7811,62.062 63.2811,60.7287 62.5,59.5C 61.8938,61.3183 60.3938,62.985 58,64.5C 57.8019,62.6183 57.3019,60.9516 56.5,59.5C 90.9645,24.7697 132.631,4.76973 181.5,-0.5 Z"/></g>
<g><path style="opacity:0.997" fill="#fefefe" d="M 193.5,-0.5 C 201.5,-0.5 209.5,-0.5 217.5,-0.5C 229.505,1.17073 241.505,3.50407 253.5,6.5C 244.903,20.697 236.569,35.0303 228.5,49.5C 224.335,55.1583 220.668,61.1583 217.5,67.5C 214.11,72.2329 211.11,77.2329 208.5,82.5C 204.805,87.5449 201.472,92.8782 198.5,98.5C 196.917,100.663 195.584,102.996 194.5,105.5C 192.412,107.336 191.079,109.669 190.5,112.5C 188.265,115.291 186.265,118.291 184.5,121.5C 182.733,123.938 181.399,126.605 180.5,129.5C 177.779,132.894 175.446,136.561 173.5,140.5C 169.414,145.665 166.08,151.332 163.5,157.5C 161,160.494 159,163.827 157.5,167.5C 152.778,174.23 148.445,181.23 144.5,188.5C 140.264,194.628 136.264,200.962 132.5,207.5C 129.472,212.85 126.472,218.184 123.5,223.5C 117.334,232.492 111.667,241.826 106.5,251.5C 88.6673,279.826 71.3339,308.493 54.5,337.5C 37.5405,320.181 24.5405,300.181 15.5,277.5C 20.663,270.513 25.3297,263.18 29.5,255.5C 35.5788,247.684 40.9121,239.35 45.5,230.5C 47.664,228.178 49.3307,225.511 50.5,222.5C 54.911,217.352 58.5777,211.686 61.5,205.5C 66.2467,199.681 70.2467,193.348 73.5,186.5C 77.553,181.108 81.2197,175.441 84.5,169.5C 87.2307,167.054 89.2307,164.054 90.5,160.5C 91.4013,159.71 92.0679,158.71 92.5,157.5C 96.2214,152.438 99.5547,147.104 102.5,141.5C 104.192,139.795 105.525,137.795 106.5,135.5C 109.194,132.124 111.527,128.457 113.5,124.5C 115.735,121.709 117.735,118.709 119.5,115.5C 121.083,113.337 122.416,111.004 123.5,108.5C 125.326,106.853 126.66,104.853 127.5,102.5C 128.906,102.027 129.573,101.027 129.5,99.5C 132.734,95.3782 135.734,91.0449 138.5,86.5C 140.584,82.6641 142.917,78.9974 145.5,75.5C 149.925,69.0781 153.925,62.4114 157.5,55.5C 169.996,37.1812 181.996,18.5145 193.5,-0.5 Z"/></g>
<g><path style="opacity:0.987" fill="#13f0ed" d="M 253.5,6.5 C 259.558,8.29711 265.558,10.2971 271.5,12.5C 264.833,23.8333 258.167,35.1667 251.5,46.5C 246.337,45.0007 241.17,45.6673 236,48.5C 233.46,47.2815 230.96,47.6148 228.5,49.5C 236.569,35.0303 244.903,20.697 253.5,6.5 Z"/></g>
<g><path style="opacity:0.997" fill="#fefefe" d="M 271.5,12.5 C 291.452,20.132 309.452,30.7987 325.5,44.5C 319.404,54.5968 313.737,64.9301 308.5,75.5C 306,78.4937 304,81.827 302.5,85.5C 300.44,88.2402 298.774,91.2402 297.5,94.5C 295.412,96.3356 294.079,98.6689 293.5,101.5C 291.917,103.663 290.584,105.996 289.5,108.5C 287.25,111.999 285.25,115.665 283.5,119.5C 281.412,121.336 280.079,123.669 279.5,126.5C 277.076,129.008 275.41,132.008 274.5,135.5C 270.414,140.665 267.08,146.332 264.5,152.5C 259.774,159.905 255.441,167.572 251.5,175.5C 247.997,180.502 244.997,185.835 242.5,191.5C 237.01,199.804 232.01,208.471 227.5,217.5C 222.774,224.905 218.441,232.572 214.5,240.5C 206.41,253.006 199.077,266.006 192.5,279.5C 184.331,292.499 176.665,305.832 169.5,319.5C 165.997,324.502 162.997,329.835 160.5,335.5C 156.251,342.329 152.251,349.329 148.5,356.5C 145.331,360.833 142.664,365.5 140.5,370.5C 136.929,375.967 133.596,381.633 130.5,387.5C 107.255,379.207 86.5886,366.873 68.5,350.5C 87.2478,318.002 106.248,285.669 125.5,253.5C 131.666,244.508 137.333,235.174 142.5,225.5C 145.403,221.37 148.07,217.037 150.5,212.5C 154.863,206.118 158.863,199.451 162.5,192.5C 167.403,185.036 172.07,177.369 176.5,169.5C 178.863,166.451 180.863,163.118 182.5,159.5C 185.669,155.167 188.336,150.5 190.5,145.5C 193.985,141.21 196.985,136.543 199.5,131.5C 201.56,128.76 203.226,125.76 204.5,122.5C 206.735,119.709 208.735,116.709 210.5,113.5C 212.861,109.483 215.194,105.483 217.5,101.5C 219.588,99.6644 220.921,97.3311 221.5,94.5C 224.916,90.6767 227.582,86.3434 229.5,81.5C 233.402,76.0401 237.069,70.3734 240.5,64.5C 244.167,58.5 247.833,52.5 251.5,46.5C 258.167,35.1667 264.833,23.8333 271.5,12.5 Z"/></g>
<g><path style="opacity:1" fill="#15ebef" d="M 251.5,46.5 C 247.833,52.5 244.167,58.5 240.5,64.5C 232.593,64.6233 224.926,65.6233 217.5,67.5C 220.668,61.1583 224.335,55.1583 228.5,49.5C 230.96,47.6148 233.46,47.2815 236,48.5C 241.17,45.6673 246.337,45.0007 251.5,46.5 Z"/></g>
<g><path style="opacity:0.996" fill="#03eaee" d="M 157.5,55.5 C 153.925,62.4114 149.925,69.0781 145.5,75.5C 144.735,74.3398 143.735,73.3398 142.5,72.5C 141.289,73.3898 139.955,73.3898 138.5,72.5C 136.971,72.5288 135.804,73.1955 135,74.5C 129.876,74.4841 124.71,74.1508 119.5,73.5C 118.252,74.0402 117.085,74.7069 116,75.5C 114.333,74.1667 112.667,74.1667 111,75.5C 110.667,74.8333 110.333,74.1667 110,73.5C 107.182,74.1285 104.515,75.1285 102,76.5C 101.055,76.0946 100.388,75.428 100,74.5C 98.4284,76.5628 96.595,77.2294 94.5,76.5C 95.0253,75.8076 95.6919,75.3076 96.5,75C 92.7342,75.6881 88.9008,76.5215 85,77.5C 83.6421,76.1913 82.3087,74.8579 81,73.5C 78.3879,76.5759 75.2213,77.2425 71.5,75.5C 70.8333,76.1667 70.1667,76.8333 69.5,77.5C 68.0295,76.5833 66.5295,75.5833 65,74.5C 63.5421,75.7468 62.0421,75.7468 60.5,74.5C 59.4826,77.028 58.3159,77.028 57,74.5C 56.6667,74.8333 56.3333,75.1667 56,75.5C 53.8526,74.8875 51.686,74.2208 49.5,73.5C 50.8114,72.7425 51.3114,71.7425 51,70.5C 49.2745,71.464 47.4412,72.1307 45.5,72.5C 48.7978,67.8677 52.4645,63.5344 56.5,59.5C 57.3019,60.9516 57.8019,62.6183 58,64.5C 60.3938,62.985 61.8938,61.3183 62.5,59.5C 63.2811,60.7287 63.7811,62.062 64,63.5C 65.9874,62.782 67.8208,61.782 69.5,60.5C 70.3333,61.5 71.1667,62.5 72,63.5C 73.5031,59.1898 75.1697,58.8564 77,62.5C 78.3333,61.1667 79.6667,59.8333 81,58.5C 81.6172,59.4491 81.4506,60.2825 80.5,61C 81.8333,63 83.1667,63 84.5,61C 82.0989,60.195 82.2656,59.3617 85,58.5C 85.3173,60.3008 85.984,60.6341 87,59.5C 88.1096,61.0368 89.6096,61.7035 91.5,61.5C 91.3505,60.448 91.5172,59.448 92,58.5C 93,59.8333 94,59.8333 95,58.5C 95.9808,61.6887 97.3141,62.022 99,59.5C 101.522,62.3264 103.522,61.9931 105,58.5C 106.806,61.6841 108.806,62.0175 111,59.5C 111.333,60.5 111.667,61.5 112,62.5C 112.862,60.913 113.529,59.2464 114,57.5C 116.635,58.4735 118.635,60.1402 120,62.5C 121.188,61.4366 121.688,60.1033 121.5,58.5C 123.331,57.9478 124.997,57.9478 126.5,58.5C 128.566,55.7019 130.066,56.0352 131,59.5C 132.674,57.9907 134.34,57.3241 136,57.5C 139.092,62.9703 140.092,62.637 139,56.5C 139.333,56.8333 139.667,57.1667 140,57.5C 142.391,55.4744 144.557,55.4744 146.5,57.5C 150.162,55.4668 153.829,54.8001 157.5,55.5 Z"/></g>
<g><path style="opacity:0.987" fill="#0be5f2" d="M 325.5,44.5 C 335.46,51.4595 344.127,59.7929 351.5,69.5C 350.178,69.67 349.011,69.3366 348,68.5C 341.154,70.4751 334.154,71.8084 327,72.5C 326.228,72.3552 325.561,72.0219 325,71.5C 319.401,72.7405 313.901,74.0738 308.5,75.5C 313.737,64.9301 319.404,54.5968 325.5,44.5 Z"/></g>
<g><path style="opacity:0.995" fill="#04ddf6" d="M 351.5,69.5 C 353.878,71.8785 355.878,74.5451 357.5,77.5C 356.4,78.5585 355.066,79.3918 353.5,80C 350.574,80.2178 347.74,80.7178 345,81.5C 343.221,80.5209 341.555,80.8542 340,82.5C 336.378,82.5824 332.712,82.5824 329,82.5C 321.673,84.4399 314.006,84.7733 306,83.5C 304.923,84.4295 303.756,85.0962 302.5,85.5C 304,81.827 306,78.4937 308.5,75.5C 313.901,74.0738 319.401,72.7405 325,71.5C 325.561,72.0219 326.228,72.3552 327,72.5C 334.154,71.8084 341.154,70.4751 348,68.5C 349.011,69.3366 350.178,69.67 351.5,69.5 Z"/></g>
<g><path style="opacity:0.996" fill="#02e4f1" d="M 145.5,75.5 C 142.917,78.9974 140.584,82.6641 138.5,86.5C 135.641,86.4082 133.141,86.0749 131,85.5C 130.333,86.1667 129.667,86.8333 129,87.5C 127.755,87.5385 126.422,87.2052 125,86.5C 123.739,86.7591 122.739,87.4258 122,88.5C 120.417,88.507 118.751,88.1737 117,87.5C 113.427,88.8668 109.76,89.8668 106,90.5C 104.984,89.3659 104.317,89.6992 104,91.5C 103.667,90.8333 103.333,90.1667 103,89.5C 93.2632,91.6387 83.5965,91.6387 74,89.5C 71.178,89.4087 68.5113,89.7421 66,90.5C 60.6756,89.34 55.3422,88.34 50,87.5C 47.6775,87.8107 45.3442,88.144 43,88.5C 42.6827,86.6992 42.016,86.3659 41,87.5C 39.0517,86.8906 37.2184,86.224 35.5,85.5C 38.0745,80.591 41.4078,76.2577 45.5,72.5C 47.4412,72.1307 49.2745,71.464 51,70.5C 51.3114,71.7425 50.8114,72.7425 49.5,73.5C 51.686,74.2208 53.8526,74.8875 56,75.5C 56.3333,75.1667 56.6667,74.8333 57,74.5C 58.3159,77.028 59.4826,77.028 60.5,74.5C 62.0421,75.7468 63.5421,75.7468 65,74.5C 66.5295,75.5833 68.0295,76.5833 69.5,77.5C 70.1667,76.8333 70.8333,76.1667 71.5,75.5C 75.2213,77.2425 78.3879,76.5759 81,73.5C 82.3087,74.8579 83.6421,76.1913 85,77.5C 88.9008,76.5215 92.7342,75.6881 96.5,75C 95.6919,75.3076 95.0253,75.8076 94.5,76.5C 96.595,77.2294 98.4284,76.5628 100,74.5C 100.388,75.428 101.055,76.0946 102,76.5C 104.515,75.1285 107.182,74.1285 110,73.5C 110.333,74.1667 110.667,74.8333 111,75.5C 112.667,74.1667 114.333,74.1667 116,75.5C 117.085,74.7069 118.252,74.0402 119.5,73.5C 124.71,74.1508 129.876,74.4841 135,74.5C 135.804,73.1955 136.971,72.5288 138.5,72.5C 139.955,73.3898 141.289,73.3898 142.5,72.5C 143.735,73.3398 144.735,74.3398 145.5,75.5 Z"/></g>
<g><path style="opacity:1" fill="#16e4f3" d="M 240.5,64.5 C 237.069,70.3734 233.402,76.0401 229.5,81.5C 225.578,81.3278 221.578,80.9945 217.5,80.5C 214.47,81.1686 211.47,81.8353 208.5,82.5C 211.11,77.2329 214.11,72.2329 217.5,67.5C 224.926,65.6233 232.593,64.6233 240.5,64.5 Z"/></g>
<g><path style="opacity:0.994" fill="#04d7f9" d="M 357.5,77.5 C 360.516,80.5203 363.183,83.8536 365.5,87.5C 360.64,86.5752 355.973,87.2419 351.5,89.5C 347.575,89.8703 343.908,89.8703 340.5,89.5C 339.522,89.9767 338.689,90.6433 338,91.5C 337.667,91.1667 337.333,90.8333 337,90.5C 330.581,91.3129 324.081,91.8129 317.5,92C 318.696,92.6543 318.696,93.1543 317.5,93.5C 314.689,93.1876 311.522,92.8543 308,92.5C 306.667,93.1667 305.333,93.8333 304,94.5C 301.973,94.0137 299.807,94.0137 297.5,94.5C 298.774,91.2402 300.44,88.2402 302.5,85.5C 303.756,85.0962 304.923,84.4295 306,83.5C 314.006,84.7733 321.673,84.4399 329,82.5C 332.712,82.5824 336.378,82.5824 340,82.5C 341.555,80.8542 343.221,80.5209 345,81.5C 347.74,80.7178 350.574,80.2178 353.5,80C 355.066,79.3918 356.4,78.5585 357.5,77.5 Z"/></g>
<g><path style="opacity:0.995" fill="#03d1fc" d="M 365.5,87.5 C 367.098,89.6979 368.431,92.0313 369.5,94.5C 362.134,96.287 354.634,97.9536 347,99.5C 345.984,98.3659 345.317,98.6992 345,100.5C 342.728,100.022 340.061,99.6889 337,99.5C 335.941,99.6301 335.108,100.13 334.5,101C 322.481,101.59 310.481,102.423 298.5,103.5C 296.545,103.276 294.879,102.609 293.5,101.5C 294.079,98.6689 295.412,96.3356 297.5,94.5C 299.807,94.0137 301.973,94.0137 304,94.5C 305.333,93.8333 306.667,93.1667 308,92.5C 311.522,92.8543 314.689,93.1876 317.5,93.5C 318.696,93.1543 318.696,92.6543 317.5,92C 324.081,91.8129 330.581,91.3129 337,90.5C 337.333,90.8333 337.667,91.1667 338,91.5C 338.689,90.6433 339.522,89.9767 340.5,89.5C 343.908,89.8703 347.575,89.8703 351.5,89.5C 355.973,87.2419 360.64,86.5752 365.5,87.5 Z"/></g>
<g><path style="opacity:1" fill="#06ddf4" d="M 35.5,85.5 C 37.2184,86.224 39.0517,86.8906 41,87.5C 42.016,86.3659 42.6827,86.6992 43,88.5C 45.3442,88.144 47.6775,87.8107 50,87.5C 55.3422,88.34 60.6756,89.34 66,90.5C 68.5113,89.7421 71.178,89.4087 74,89.5C 83.5965,91.6387 93.2632,91.6387 103,89.5C 103.333,90.1667 103.667,90.8333 104,91.5C 104.317,89.6992 104.984,89.3659 106,90.5C 109.76,89.8668 113.427,88.8668 117,87.5C 118.751,88.1737 120.417,88.507 122,88.5C 122.739,87.4258 123.739,86.7591 125,86.5C 126.422,87.2052 127.755,87.5385 129,87.5C 129.667,86.8333 130.333,86.1667 131,85.5C 133.141,86.0749 135.641,86.4082 138.5,86.5C 135.734,91.0449 132.734,95.3782 129.5,99.5C 129.649,98.448 129.483,97.448 129,96.5C 124.02,97.329 118.853,97.329 113.5,96.5C 110.961,97.1153 108.461,97.7819 106,98.5C 94.5497,97.8024 83.0497,97.1357 71.5,96.5C 65.6858,97.0775 59.8525,97.4109 54,97.5C 48.5038,96.2172 43.0038,95.2172 37.5,94.5C 34.7676,95.4809 32.4343,94.8142 30.5,92.5C 31.8109,89.8646 33.4776,87.5313 35.5,85.5 Z"/></g>
<g><path style="opacity:1" fill="#17daf8" d="M 229.5,81.5 C 227.582,86.3434 224.916,90.6767 221.5,94.5C 221.103,93.475 220.437,93.3083 219.5,94C 218.809,95.0674 218.309,96.2341 218,97.5C 217.051,93.6221 215.885,93.6221 214.5,97.5C 213.719,96.2713 213.219,94.938 213,93.5C 212.186,99.2302 211.019,99.5635 209.5,94.5C 209.167,95.8333 208.833,97.1667 208.5,98.5C 207.416,97.3349 206.583,96.0016 206,94.5C 205.803,99.1782 204.803,99.5116 203,95.5C 201.956,96.6226 201.29,97.9559 201,99.5C 200.329,98.7476 199.496,98.4142 198.5,98.5C 201.472,92.8782 204.805,87.5449 208.5,82.5C 211.47,81.8353 214.47,81.1686 217.5,80.5C 221.578,80.9945 225.578,81.3278 229.5,81.5 Z"/></g>
<g><path style="opacity:0.989" fill="#06ccfe" d="M 369.5,94.5 C 372,97.4937 374,100.827 375.5,104.5C 374.152,105.186 372.985,106.186 372,107.5C 369.712,107.263 367.212,107.263 364.5,107.5C 347.625,106.416 330.625,106.416 313.5,107.5C 312.252,106.96 311.085,106.293 310,105.5C 306.367,106.496 302.701,107.496 299,108.5C 295.944,107.718 292.777,107.718 289.5,108.5C 290.584,105.996 291.917,103.663 293.5,101.5C 294.879,102.609 296.545,103.276 298.5,103.5C 310.481,102.423 322.481,101.59 334.5,101C 335.108,100.13 335.941,99.6301 337,99.5C 340.061,99.6889 342.728,100.022 345,100.5C 345.317,98.6992 345.984,98.3659 347,99.5C 354.634,97.9536 362.134,96.287 369.5,94.5 Z"/></g>
<g><path style="opacity:1" fill="#02d6f4" d="M 30.5,92.5 C 32.4343,94.8142 34.7676,95.4809 37.5,94.5C 43.0038,95.2172 48.5038,96.2172 54,97.5C 59.8525,97.4109 65.6858,97.0775 71.5,96.5C 83.0497,97.1357 94.5497,97.8024 106,98.5C 108.461,97.7819 110.961,97.1153 113.5,96.5C 118.853,97.329 124.02,97.329 129,96.5C 129.483,97.448 129.649,98.448 129.5,99.5C 129.573,101.027 128.906,102.027 127.5,102.5C 120.971,102.825 114.471,102.825 108,102.5C 101.917,102.941 95.7503,103.941 89.5,105.5C 79.1891,105.305 68.6891,104.638 58,103.5C 55.9068,104.246 53.9068,104.579 52,104.5C 49.876,103.773 47.7094,103.106 45.5,102.5C 44.3776,104.044 44.711,105.377 46.5,106.5C 45.8551,107.646 45.0217,108.646 44,109.5C 36.4863,109.527 28.9863,109.193 21.5,108.5C 23.9969,102.835 26.9969,97.5016 30.5,92.5 Z"/></g>
<g><path style="opacity:1" fill="#20d3fb" d="M 221.5,94.5 C 220.921,97.3311 219.588,99.6644 217.5,101.5C 209.72,102.323 202.053,103.657 194.5,105.5C 195.584,102.996 196.917,100.663 198.5,98.5C 199.496,98.4142 200.329,98.7476 201,99.5C 201.29,97.9559 201.956,96.6226 203,95.5C 204.803,99.5116 205.803,99.1782 206,94.5C 206.583,96.0016 207.416,97.3349 208.5,98.5C 208.833,97.1667 209.167,95.8333 209.5,94.5C 211.019,99.5635 212.186,99.2302 213,93.5C 213.219,94.938 213.719,96.2713 214.5,97.5C 215.885,93.6221 217.051,93.6221 218,97.5C 218.309,96.2341 218.809,95.0674 219.5,94C 220.437,93.3083 221.103,93.475 221.5,94.5 Z"/></g>
<g><path style="opacity:1" fill="#17d0f5" d="M 127.5,102.5 C 126.66,104.853 125.326,106.853 123.5,108.5C 103.923,108.955 84.2558,108.955 64.5,108.5C 60.8018,109.373 57.1351,110.373 53.5,111.5C 52.0944,110.332 50.9277,110.665 50,112.5C 48.8831,112.335 47.7164,112.002 46.5,111.5C 42.6706,114.182 38.5039,116.182 34,117.5C 32.6269,116.485 31.4602,116.485 30.5,117.5C 26.3713,118.434 22.3713,118.767 18.5,118.5C 18.2129,117.8 17.8795,117.133 17.5,116.5C 18.3257,113.515 19.659,110.849 21.5,108.5C 28.9863,109.193 36.4863,109.527 44,109.5C 45.0217,108.646 45.8551,107.646 46.5,106.5C 44.711,105.377 44.3776,104.044 45.5,102.5C 47.7094,103.106 49.876,103.773 52,104.5C 53.9068,104.579 55.9068,104.246 58,103.5C 68.6891,104.638 79.1891,105.305 89.5,105.5C 95.7503,103.941 101.917,102.941 108,102.5C 114.471,102.825 120.971,102.825 127.5,102.5 Z"/></g>
<g><path style="opacity:1" fill="#27c9fe" d="M 364.5,107.5 C 364.631,108.376 364.298,109.043 363.5,109.5C 359.935,111.517 356.435,111.85 353,110.5C 348.762,110.871 344.762,111.871 341,113.5C 340.667,113.167 340.333,112.833 340,112.5C 339.009,113.939 337.676,114.939 336,115.5C 333,115.167 330,114.833 327,114.5C 325.445,116.146 323.779,116.479 322,115.5C 315.559,116.32 309.059,116.986 302.5,117.5C 296.06,117.586 289.727,118.253 283.5,119.5C 285.25,115.665 287.25,111.999 289.5,108.5C 292.777,107.718 295.944,107.718 299,108.5C 302.701,107.496 306.367,106.496 310,105.5C 311.085,106.293 312.252,106.96 313.5,107.5C 330.625,106.416 347.625,106.416 364.5,107.5 Z"/></g>
<g><path style="opacity:1" fill="#3dcefd" d="M 217.5,101.5 C 215.194,105.483 212.861,109.483 210.5,113.5C 203.821,113.016 197.154,112.683 190.5,112.5C 191.079,109.669 192.412,107.336 194.5,105.5C 202.053,103.657 209.72,102.323 217.5,101.5 Z"/></g>
<g><path style="opacity:1" fill="#2fccf8" d="M 123.5,108.5 C 122.416,111.004 121.083,113.337 119.5,115.5C 119.5,114.5 119.5,113.5 119.5,112.5C 113.882,113.422 108.382,113.422 103,112.5C 97.7828,113.998 92.6162,114.998 87.5,115.5C 85.6144,115.072 83.7811,114.739 82,114.5C 77.0929,115.53 72.2595,116.53 67.5,117.5C 59.7871,116.52 51.9537,116.187 44,116.5C 40.4943,117.74 36.9943,118.74 33.5,119.5C 32.2613,119.058 31.2613,118.391 30.5,117.5C 31.4602,116.485 32.6269,116.485 34,117.5C 38.5039,116.182 42.6706,114.182 46.5,111.5C 47.7164,112.002 48.8831,112.335 50,112.5C 50.9277,110.665 52.0944,110.332 53.5,111.5C 57.1351,110.373 60.8018,109.373 64.5,108.5C 84.2558,108.955 103.923,108.955 123.5,108.5 Z"/></g>
<g><path style="opacity:1" fill="#2cc5ff" d="M 375.5,104.5 C 377.674,107.515 379.341,110.849 380.5,114.5C 380.819,116.75 380.319,118.75 379,120.5C 376.281,119.556 373.448,119.223 370.5,119.5C 370.532,121.619 369.532,122.952 367.5,123.5C 357.3,121.37 346.966,120.037 336.5,119.5C 334.833,120.833 333.167,120.833 331.5,119.5C 329.945,119.722 328.611,120.389 327.5,121.5C 320.226,120.339 312.893,119.506 305.5,119C 304.263,118.768 303.263,118.268 302.5,117.5C 309.059,116.986 315.559,116.32 322,115.5C 323.779,116.479 325.445,116.146 327,114.5C 330,114.833 333,115.167 336,115.5C 337.676,114.939 339.009,113.939 340,112.5C 340.333,112.833 340.667,113.167 341,113.5C 344.762,111.871 348.762,110.871 353,110.5C 356.435,111.85 359.935,111.517 363.5,109.5C 364.298,109.043 364.631,108.376 364.5,107.5C 367.212,107.263 369.712,107.263 372,107.5C 372.985,106.186 374.152,105.186 375.5,104.5 Z"/></g>
<g><path style="opacity:1" fill="#54c6fe" d="M 190.5,112.5 C 197.154,112.683 203.821,113.016 210.5,113.5C 208.735,116.709 206.735,119.709 204.5,122.5C 197.773,122.284 191.106,121.951 184.5,121.5C 186.265,118.291 188.265,115.291 190.5,112.5 Z"/></g>
<g><path style="opacity:1" fill="#45c3ff" d="M 302.5,117.5 C 303.263,118.268 304.263,118.768 305.5,119C 312.893,119.506 320.226,120.339 327.5,121.5C 328.611,120.389 329.945,119.722 331.5,119.5C 333.167,120.833 334.833,120.833 336.5,119.5C 346.966,120.037 357.3,121.37 367.5,123.5C 363.3,123.901 359.467,125.235 356,127.5C 352.162,126.841 348.329,126.508 344.5,126.5C 341.441,127.686 338.275,128.353 335,128.5C 333.019,128.371 331.353,127.704 330,126.5C 328.605,127.815 327.605,127.481 327,125.5C 325.284,125.411 323.451,125.744 321.5,126.5C 319.291,125.894 317.124,125.227 315,124.5C 311.708,124.86 308.208,125.527 304.5,126.5C 302.694,125.141 301.194,125.475 300,127.5C 294.903,126.976 289.903,125.976 285,124.5C 284.692,125.308 284.192,125.975 283.5,126.5C 282.135,125.193 280.802,125.193 279.5,126.5C 280.079,123.669 281.412,121.336 283.5,119.5C 289.727,118.253 296.06,117.586 302.5,117.5 Z"/></g>
<g><path style="opacity:1" fill="#33c0ed" d="M 17.5,116.5 C 17.8795,117.133 18.2129,117.8 18.5,118.5C 22.3713,118.767 26.3713,118.434 30.5,117.5C 31.2613,118.391 32.2613,119.058 33.5,119.5C 36.9943,118.74 40.4943,117.74 44,116.5C 51.9537,116.187 59.7871,116.52 67.5,117.5C 67.6309,118.376 67.2975,119.043 66.5,119.5C 62.7632,119.102 59.0965,119.102 55.5,119.5C 49.1129,121.948 42.6129,123.948 36,125.5C 33.8921,124.388 32.3921,125.054 31.5,127.5C 26.5548,127.237 21.8882,128.237 17.5,130.5C 15.6165,129.722 13.9498,129.389 12.5,129.5C 13.3697,124.777 15.0363,120.444 17.5,116.5 Z"/></g>
<g><path style="opacity:1" fill="#43c1f6" d="M 119.5,115.5 C 117.735,118.709 115.735,121.709 113.5,124.5C 113.631,123.761 113.464,123.094 113,122.5C 108.285,123.779 103.452,124.612 98.5,125C 96.3822,125.635 94.3822,126.469 92.5,127.5C 85.2233,126.796 77.8899,126.796 70.5,127.5C 66.0569,127.645 61.5569,127.312 57,126.5C 50.6321,128.056 44.1321,129.056 37.5,129.5C 35.1175,129.639 33.1175,128.972 31.5,127.5C 32.3921,125.054 33.8921,124.388 36,125.5C 42.6129,123.948 49.1129,121.948 55.5,119.5C 59.0965,119.102 62.7632,119.102 66.5,119.5C 67.2975,119.043 67.6309,118.376 67.5,117.5C 72.2595,116.53 77.0929,115.53 82,114.5C 83.7811,114.739 85.6144,115.072 87.5,115.5C 92.6162,114.998 97.7828,113.998 103,112.5C 108.382,113.422 113.882,113.422 119.5,112.5C 119.5,113.5 119.5,114.5 119.5,115.5 Z"/></g>
<g><path style="opacity:1" fill="#61beff" d="M 184.5,121.5 C 191.106,121.951 197.773,122.284 204.5,122.5C 203.226,125.76 201.56,128.76 199.5,131.5C 197.657,130.717 195.657,130.05 193.5,129.5C 189.244,129.936 184.911,129.936 180.5,129.5C 181.399,126.605 182.733,123.938 184.5,121.5 Z"/></g>
<g><path style="opacity:1" fill="#51beff" d="M 380.5,114.5 C 382.403,117.979 384.07,121.646 385.5,125.5C 384.226,126.189 384.226,127.023 385.5,128C 383.385,128.557 381.385,129.391 379.5,130.5C 377.412,129.821 375.412,129.488 373.5,129.5C 369.278,131.634 364.445,133.3 359,134.5C 357.578,133.795 356.245,133.461 355,133.5C 353.649,135.019 352.149,136.352 350.5,137.5C 347.416,136.018 344.249,136.351 341,138.5C 332.399,137.766 323.399,137.766 314,138.5C 310.186,136.796 306.686,136.13 303.5,136.5C 302.943,138.718 302.943,141.051 303.5,143.5C 300.562,140.053 298.562,136.053 297.5,131.5C 296.5,131.5 295.5,131.5 294.5,131.5C 293.157,135.845 291.157,139.845 288.5,143.5C 288.5,141.833 288.5,140.167 288.5,138.5C 283.866,137.568 279.199,136.568 274.5,135.5C 275.41,132.008 277.076,129.008 279.5,126.5C 280.802,125.193 282.135,125.193 283.5,126.5C 284.192,125.975 284.692,125.308 285,124.5C 289.903,125.976 294.903,126.976 300,127.5C 301.194,125.475 302.694,125.141 304.5,126.5C 308.208,125.527 311.708,124.86 315,124.5C 317.124,125.227 319.291,125.894 321.5,126.5C 323.451,125.744 325.284,125.411 327,125.5C 327.605,127.481 328.605,127.815 330,126.5C 331.353,127.704 333.019,128.371 335,128.5C 338.275,128.353 341.441,127.686 344.5,126.5C 348.329,126.508 352.162,126.841 356,127.5C 359.467,125.235 363.3,123.901 367.5,123.5C 369.532,122.952 370.532,121.619 370.5,119.5C 373.448,119.223 376.281,119.556 379,120.5C 380.319,118.75 380.819,116.75 380.5,114.5 Z"/></g>
<g><path style="opacity:1" fill="#55b9f8" d="M 113.5,124.5 C 111.527,128.457 109.194,132.124 106.5,135.5C 106.539,134.244 106.039,133.244 105,132.5C 101.711,133.313 98.2114,133.313 94.5,132.5C 92.9707,132.529 91.804,133.196 91,134.5C 90.2496,133.874 89.4162,133.374 88.5,133C 83.6924,132.713 79.0257,132.546 74.5,132.5C 69.9533,131.324 65.4533,131.324 61,132.5C 60.5,132 60,131.5 59.5,131C 63.2541,129.691 66.9207,128.525 70.5,127.5C 77.8899,126.796 85.2233,126.796 92.5,127.5C 94.3822,126.469 96.3822,125.635 98.5,125C 103.452,124.612 108.285,123.779 113,122.5C 113.464,123.094 113.631,123.761 113.5,124.5 Z"/></g>
<g><path style="opacity:1" fill="#46b1ea" d="M 70.5,127.5 C 66.9207,128.525 63.2541,129.691 59.5,131C 60,131.5 60.5,132 61,132.5C 65.4533,131.324 69.9533,131.324 74.5,132.5C 70.84,133.673 67.0067,134.673 63,135.5C 60.4175,134.686 58.0841,135.353 56,137.5C 49.9283,136.906 44.095,136.573 38.5,136.5C 35.4178,138.652 32.0844,140.318 28.5,141.5C 22.189,140.492 15.5223,140.159 8.5,140.5C 9.06533,136.463 10.3987,132.797 12.5,129.5C 13.9498,129.389 15.6165,129.722 17.5,130.5C 21.8882,128.237 26.5548,127.237 31.5,127.5C 33.1175,128.972 35.1175,129.639 37.5,129.5C 44.1321,129.056 50.6321,128.056 57,126.5C 61.5569,127.312 66.0569,127.645 70.5,127.5 Z"/></g>
<g><path style="opacity:0.995" fill="#fdfdfe" d="M 303.5,143.5 C 304.492,145.815 306.158,147.482 308.5,148.5C 310.622,154.197 313.288,159.697 316.5,165C 317.465,166.975 318.799,168.475 320.5,169.5C 322.672,173.259 325.006,176.926 327.5,180.5C 327.489,184.313 329.155,186.98 332.5,188.5C 332.687,190.564 333.187,192.564 334,194.5C 336.253,196.035 337.753,198.035 338.5,200.5C 339.217,203.237 340.55,205.57 342.5,207.5C 345.482,212.154 348.482,216.821 351.5,221.5C 355.131,228.747 359.131,235.747 363.5,242.5C 366.7,247.13 369.7,251.797 372.5,256.5C 374.859,261.346 377.692,266.013 381,270.5C 382.413,272.652 383.246,274.986 383.5,277.5C 373.816,300.887 360.15,321.553 342.5,339.5C 339.459,335.345 336.792,331.012 334.5,326.5C 322.029,305.714 310.029,284.714 298.5,263.5C 297.475,260.637 296.142,257.971 294.5,255.5C 293.025,253.993 291.691,252.327 290.5,250.5C 287.229,243.07 283.229,236.07 278.5,229.5C 274.57,220.662 269.903,212.328 264.5,204.5C 263.971,202.216 262.971,200.216 261.5,198.5C 261.167,198.5 260.833,198.5 260.5,198.5C 260.169,196.678 259.502,195.011 258.5,193.5C 260.538,191.965 262.205,189.965 263.5,187.5C 264.761,183.922 266.428,180.589 268.5,177.5C 268.5,176.5 268.5,175.5 268.5,174.5C 270.333,172.888 272,171.222 273.5,169.5C 274.458,169.047 275.292,168.381 276,167.5C 277.549,163.13 279.716,159.13 282.5,155.5C 283.993,151.18 285.993,147.18 288.5,143.5C 291.157,139.845 293.157,135.845 294.5,131.5C 295.5,131.5 296.5,131.5 297.5,131.5C 298.562,136.053 300.562,140.053 303.5,143.5 Z"/></g>
<g><path style="opacity:1" fill="#6ab4fe" d="M 180.5,129.5 C 184.911,129.936 189.244,129.936 193.5,129.5C 195.657,130.05 197.657,130.717 199.5,131.5C 196.985,136.543 193.985,141.21 190.5,145.5C 190.5,144.5 190.5,143.5 190.5,142.5C 184.783,142.124 179.116,141.457 173.5,140.5C 175.446,136.561 177.779,132.894 180.5,129.5 Z"/></g>
<g><path style="opacity:1" fill="#53abeb" d="M 74.5,132.5 C 79.0257,132.546 83.6924,132.713 88.5,133C 89.4162,133.374 90.2496,133.874 91,134.5C 91.804,133.196 92.9707,132.529 94.5,132.5C 98.2114,133.313 101.711,133.313 105,132.5C 106.039,133.244 106.539,134.244 106.5,135.5C 105.525,137.795 104.192,139.795 102.5,141.5C 102.5,140.5 102.5,139.5 102.5,138.5C 95.7945,138.757 89.1278,138.424 82.5,137.5C 80.3745,138.786 78.0411,139.619 75.5,140C 75.8333,140.333 76.1667,140.667 76.5,141C 75.5838,141.374 74.7504,141.874 74,142.5C 65.1517,141.847 55.985,141.681 46.5,142C 45.3774,143.044 44.0441,143.71 42.5,144C 45.2297,145.232 45.063,146.065 42,146.5C 30.5855,146.085 18.7522,146.085 6.5,146.5C 6.87513,144.302 7.5418,142.302 8.5,140.5C 15.5223,140.159 22.189,140.492 28.5,141.5C 32.0844,140.318 35.4178,138.652 38.5,136.5C 44.095,136.573 49.9283,136.906 56,137.5C 58.0841,135.353 60.4175,134.686 63,135.5C 67.0067,134.673 70.84,133.673 74.5,132.5 Z"/></g>
<g><path style="opacity:1" fill="#56b8fe" d="M 385.5,125.5 C 387.363,129.755 389.03,134.088 390.5,138.5C 389.819,140.158 388.985,141.825 388,143.5C 387.667,142.833 387.333,142.167 387,141.5C 374.573,143.697 361.573,145.697 348,147.5C 345.029,145.898 342.362,146.231 340,148.5C 338.355,148.307 336.521,148.14 334.5,148C 334,147.5 333.5,147 333,146.5C 331.67,147.582 330.17,148.249 328.5,148.5C 323.554,148.339 318.387,147.673 313,146.5C 311.014,146.569 309.514,147.235 308.5,148.5C 306.158,147.482 304.492,145.815 303.5,143.5C 302.943,141.051 302.943,138.718 303.5,136.5C 306.686,136.13 310.186,136.796 314,138.5C 323.399,137.766 332.399,137.766 341,138.5C 344.249,136.351 347.416,136.018 350.5,137.5C 352.149,136.352 353.649,135.019 355,133.5C 356.245,133.461 357.578,133.795 359,134.5C 364.445,133.3 369.278,131.634 373.5,129.5C 375.412,129.488 377.412,129.821 379.5,130.5C 381.385,129.391 383.385,128.557 385.5,128C 384.226,127.023 384.226,126.189 385.5,125.5 Z"/></g>
<g><path style="opacity:1" fill="#6db5fe" d="M 274.5,135.5 C 279.199,136.568 283.866,137.568 288.5,138.5C 288.5,140.167 288.5,141.833 288.5,143.5C 285.993,147.18 283.993,151.18 282.5,155.5C 282.167,155.5 281.833,155.5 281.5,155.5C 281.5,154.5 281.5,153.5 281.5,152.5C 276.954,152.16 272.454,151.493 268,150.5C 266.697,150.978 265.531,151.645 264.5,152.5C 267.08,146.332 270.414,140.665 274.5,135.5 Z"/></g>
<g><path style="opacity:1" fill="#57a1e5" d="M 102.5,141.5 C 99.5547,147.104 96.2214,152.438 92.5,157.5C 92.6567,156.127 92.49,154.793 92,153.5C 90.2151,152.76 88.3817,152.093 86.5,151.5C 82.9929,151.921 79.4929,152.254 76,152.5C 73.2408,151.677 70.4074,151.01 67.5,150.5C 62.1348,151.44 56.6348,151.44 51,150.5C 49,151.167 47,151.833 45,152.5C 44.3333,151.833 43.6667,151.167 43,150.5C 39.4727,151.635 35.6394,151.635 31.5,150.5C 30.5,151 29.5,151.5 28.5,152C 30.8333,152.333 33.1667,152.667 35.5,153C 34.8742,153.75 34.3742,154.584 34,155.5C 28.4683,152.201 22.9683,152.201 17.5,155.5C 16.8076,154.975 16.3076,154.308 16,153.5C 13.1668,155.827 10.1668,155.827 7,153.5C 6.66667,153.833 6.33333,154.167 6,154.5C 5.51722,153.552 5.35055,152.552 5.5,151.5C 5.36596,149.708 5.69929,148.042 6.5,146.5C 18.7522,146.085 30.5855,146.085 42,146.5C 45.063,146.065 45.2297,145.232 42.5,144C 44.0441,143.71 45.3774,143.044 46.5,142C 55.985,141.681 65.1517,141.847 74,142.5C 74.7504,141.874 75.5838,141.374 76.5,141C 76.1667,140.667 75.8333,140.333 75.5,140C 78.0411,139.619 80.3745,138.786 82.5,137.5C 89.1278,138.424 95.7945,138.757 102.5,138.5C 102.5,139.5 102.5,140.5 102.5,141.5 Z"/></g>
<g><path style="opacity:1" fill="#5db2fe" d="M 390.5,138.5 C 391.707,142.787 392.707,147.12 393.5,151.5C 391.421,154.018 388.921,155.018 386,154.5C 382.332,156.609 378.499,157.276 374.5,156.5C 373.059,157.304 371.559,157.971 370,158.5C 365.077,157.37 360.41,157.37 356,158.5C 351.14,155.863 346.14,154.863 341,155.5C 339.303,154.636 338.137,153.303 337.5,151.5C 334.893,150.682 332.226,150.182 329.5,150C 328.944,149.617 328.611,149.117 328.5,148.5C 330.17,148.249 331.67,147.582 333,146.5C 333.5,147 334,147.5 334.5,148C 336.521,148.14 338.355,148.307 340,148.5C 342.362,146.231 345.029,145.898 348,147.5C 361.573,145.697 374.573,143.697 387,141.5C 387.333,142.167 387.667,142.833 388,143.5C 388.985,141.825 389.819,140.158 390.5,138.5 Z"/></g>
<g><path style="opacity:1" fill="#5797de" d="M 92.5,157.5 C 92.0679,158.71 91.4013,159.71 90.5,160.5C 90.5,159.167 90.5,157.833 90.5,156.5C 84.0841,155.604 77.5841,155.937 71,157.5C 59.0156,157.4 46.5156,157.233 33.5,157C 36.4775,157.84 39.8108,158.507 43.5,159C 43.8333,159.333 44.1667,159.667 44.5,160C 42.567,160.251 40.7337,160.751 39,161.5C 37.2927,160.541 35.4594,159.875 33.5,159.5C 25.7345,160.29 17.9012,160.29 10,159.5C 7.5505,159.658 5.38384,160.325 3.5,161.5C 3.16667,161.5 2.83333,161.5 2.5,161.5C 3.25696,158.01 4.25696,154.677 5.5,151.5C 5.35055,152.552 5.51722,153.552 6,154.5C 6.33333,154.167 6.66667,153.833 7,153.5C 10.1668,155.827 13.1668,155.827 16,153.5C 16.3076,154.308 16.8076,154.975 17.5,155.5C 22.9683,152.201 28.4683,152.201 34,155.5C 34.3742,154.584 34.8742,153.75 35.5,153C 33.1667,152.667 30.8333,152.333 28.5,152C 29.5,151.5 30.5,151 31.5,150.5C 35.6394,151.635 39.4727,151.635 43,150.5C 43.6667,151.167 44.3333,151.833 45,152.5C 47,151.833 49,151.167 51,150.5C 56.6348,151.44 62.1348,151.44 67.5,150.5C 70.4074,151.01 73.2408,151.677 76,152.5C 79.4929,152.254 82.9929,151.921 86.5,151.5C 88.3817,152.093 90.2151,152.76 92,153.5C 92.49,154.793 92.6567,156.127 92.5,157.5 Z"/></g>
<g><path style="opacity:1" fill="#6ba4f2" d="M 173.5,140.5 C 179.116,141.457 184.783,142.124 190.5,142.5C 190.5,143.5 190.5,144.5 190.5,145.5C 188.336,150.5 185.669,155.167 182.5,159.5C 182.586,158.504 182.252,157.671 181.5,157C 180.167,156.833 178.833,156.667 177.5,156.5C 172.891,156.523 168.224,156.856 163.5,157.5C 166.08,151.332 169.414,145.665 173.5,140.5 Z"/></g>
<g><path style="opacity:1" fill="#63adfb" d="M 328.5,148.5 C 328.611,149.117 328.944,149.617 329.5,150C 332.226,150.182 334.893,150.682 337.5,151.5C 338.137,153.303 339.303,154.636 341,155.5C 346.14,154.863 351.14,155.863 356,158.5C 360.41,157.37 365.077,157.37 370,158.5C 371.559,157.971 373.059,157.304 374.5,156.5C 378.499,157.276 382.332,156.609 386,154.5C 388.921,155.018 391.421,154.018 393.5,151.5C 394.743,154.677 395.743,158.01 396.5,161.5C 395.373,162.122 394.373,162.955 393.5,164C 388.319,164.793 383.152,165.627 378,166.5C 372.383,165.324 366.716,165.991 361,168.5C 347.181,167.475 333.347,166.475 319.5,165.5C 319.433,166.959 319.766,168.292 320.5,169.5C 318.799,168.475 317.465,166.975 316.5,165C 313.288,159.697 310.622,154.197 308.5,148.5C 309.514,147.235 311.014,146.569 313,146.5C 318.387,147.673 323.554,148.339 328.5,148.5 Z"/></g>
<g><path style="opacity:1" fill="#578ed7" d="M 90.5,160.5 C 89.2307,164.054 87.2307,167.054 84.5,169.5C 81.0722,167.59 77.2388,166.257 73,165.5C 63.7032,166.038 54.0365,166.038 44,165.5C 43.3333,164.833 42.6667,164.167 42,163.5C 38.3222,164.581 34.3222,165.581 30,166.5C 25.1396,165.973 20.473,165.973 16,166.5C 14.9079,165.704 13.7412,165.037 12.5,164.5C 9.50375,165.668 6.50375,165.668 3.5,164.5C 3.5,163.5 3.5,162.5 3.5,161.5C 5.38384,160.325 7.5505,159.658 10,159.5C 17.9012,160.29 25.7345,160.29 33.5,159.5C 35.4594,159.875 37.2927,160.541 39,161.5C 40.7337,160.751 42.567,160.251 44.5,160C 44.1667,159.667 43.8333,159.333 43.5,159C 39.8108,158.507 36.4775,157.84 33.5,157C 46.5156,157.233 59.0156,157.4 71,157.5C 77.5841,155.937 84.0841,155.604 90.5,156.5C 90.5,157.833 90.5,159.167 90.5,160.5 Z"/></g>
<g><path style="opacity:1" fill="#6795e4" d="M 182.5,159.5 C 180.863,163.118 178.863,166.451 176.5,169.5C 171.026,168.083 165.36,167.083 159.5,166.5C 158.817,166.863 158.15,167.196 157.5,167.5C 159,163.827 161,160.494 163.5,157.5C 168.224,156.856 172.891,156.523 177.5,156.5C 178.833,156.667 180.167,156.833 181.5,157C 182.252,157.671 182.586,158.504 182.5,159.5 Z"/></g>
<g><path style="opacity:1" fill="#cee1fc" d="M 281.5,155.5 C 281.833,155.5 282.167,155.5 282.5,155.5C 279.716,159.13 277.549,163.13 276,167.5C 275.292,168.381 274.458,169.047 273.5,169.5C 274.872,164.107 277.539,159.44 281.5,155.5 Z"/></g>
<g><path style="opacity:1" fill="#6ba1f0" d="M 281.5,155.5 C 277.539,159.44 274.872,164.107 273.5,169.5C 272,171.222 270.333,172.888 268.5,174.5C 264.272,173.6 259.939,172.6 255.5,171.5C 254.333,173.079 253,174.412 251.5,175.5C 255.441,167.572 259.774,159.905 264.5,152.5C 265.531,151.645 266.697,150.978 268,150.5C 272.454,151.493 276.954,152.16 281.5,152.5C 281.5,153.5 281.5,154.5 281.5,155.5 Z"/></g>
<g><path style="opacity:1" fill="#5882cd" d="M 2.5,161.5 C 2.83333,161.5 3.16667,161.5 3.5,161.5C 3.5,162.5 3.5,163.5 3.5,164.5C 6.50375,165.668 9.50375,165.668 12.5,164.5C 13.7412,165.037 14.9079,165.704 16,166.5C 20.473,165.973 25.1396,165.973 30,166.5C 34.3222,165.581 38.3222,164.581 42,163.5C 42.6667,164.167 43.3333,164.833 44,165.5C 54.0365,166.038 63.7032,166.038 73,165.5C 77.2388,166.257 81.0722,167.59 84.5,169.5C 81.2197,175.441 77.553,181.108 73.5,186.5C 72.4019,185.603 72.4019,184.77 73.5,184C 72.2341,183.691 71.0674,183.191 70,182.5C 61.8045,181.967 53.6378,181.967 45.5,182.5C 37.2155,180.687 28.7155,180.354 20,181.5C 18.9326,180.809 17.7659,180.309 16.5,180C 17.8333,179.333 17.8333,178.667 16.5,178C 18.9011,177.195 18.7344,176.362 16,175.5C 15,176.5 14,177.5 13,178.5C 9.06122,177.867 4.89455,176.867 0.5,175.5C 1.38297,170.868 2.04963,166.202 2.5,161.5 Z"/></g>
<g><path style="opacity:1" fill="#64a1ef" d="M 396.5,161.5 C 397.385,167.474 398.051,173.474 398.5,179.5C 394.187,182.413 389.52,183.413 384.5,182.5C 382.616,182.716 380.949,183.383 379.5,184.5C 375.885,182.12 372.218,182.12 368.5,184.5C 361.718,182.175 355.051,181.509 348.5,182.5C 341.728,181.077 334.895,179.744 328,178.5C 327.536,179.094 327.369,179.761 327.5,180.5C 325.006,176.926 322.672,173.259 320.5,169.5C 319.766,168.292 319.433,166.959 319.5,165.5C 333.347,166.475 347.181,167.475 361,168.5C 366.716,165.991 372.383,165.324 378,166.5C 383.152,165.627 388.319,164.793 393.5,164C 394.373,162.955 395.373,162.122 396.5,161.5 Z"/></g>
<g><path style="opacity:1" fill="#6085d2" d="M 176.5,169.5 C 172.07,177.369 167.403,185.036 162.5,192.5C 161.526,190.915 160.026,189.915 158,189.5C 156.601,189.501 155.101,189.835 153.5,190.5C 150.496,188.77 147.496,188.103 144.5,188.5C 148.445,181.23 152.778,174.23 157.5,167.5C 158.15,167.196 158.817,166.863 159.5,166.5C 165.36,167.083 171.026,168.083 176.5,169.5 Z"/></g>
<g><path style="opacity:1" fill="#628ddb" d="M 268.5,174.5 C 268.5,175.5 268.5,176.5 268.5,177.5C 266.943,178.466 265.61,179.8 264.5,181.5C 262.803,185.702 260.803,189.702 258.5,193.5C 259.502,195.011 260.169,196.678 260.5,198.5C 258.087,197.32 257.087,195.32 257.5,192.5C 252.507,192.084 247.507,191.751 242.5,191.5C 244.997,185.835 247.997,180.502 251.5,175.5C 253,174.412 254.333,173.079 255.5,171.5C 259.939,172.6 264.272,173.6 268.5,174.5 Z"/></g>
<g><path style="opacity:1" fill="#5775c1" d="M 0.5,175.5 C 4.89455,176.867 9.06122,177.867 13,178.5C 14,177.5 15,176.5 16,175.5C 18.7344,176.362 18.9011,177.195 16.5,178C 17.8333,178.667 17.8333,179.333 16.5,180C 17.7659,180.309 18.9326,180.809 20,181.5C 28.7155,180.354 37.2155,180.687 45.5,182.5C 53.6378,181.967 61.8045,181.967 70,182.5C 71.0674,183.191 72.2341,183.691 73.5,184C 72.4019,184.77 72.4019,185.603 73.5,186.5C 70.2467,193.348 66.2467,199.681 61.5,205.5C 57.5847,203.986 53.4181,202.653 49,201.5C 46.7683,202.187 44.6016,202.521 42.5,202.5C 39.3345,200.654 36.1678,200.32 33,201.5C 32.6924,200.692 32.1924,200.025 31.5,199.5C 28.5216,200.483 25.3549,200.817 22,200.5C 19.6985,199.133 17.1985,198.466 14.5,198.5C 14.5,197.5 14.5,196.5 14.5,195.5C 10.0613,195.246 5.72799,194.412 1.5,193C 0.876708,190.393 0.210041,187.893 -0.5,185.5C -0.5,184.167 -0.5,182.833 -0.5,181.5C 0.461384,179.735 0.794717,177.735 0.5,175.5 Z"/></g>
<g><path style="opacity:0.997" fill="#6398e7" d="M 398.5,179.5 C 398.328,180.492 398.662,181.158 399.5,181.5C 399.5,184.5 399.5,187.5 399.5,190.5C 392.208,190.896 384.875,191.063 377.5,191C 378.696,191.654 378.696,192.154 377.5,192.5C 362.941,190.75 348.108,188.75 333,186.5C 331.316,186.683 331.15,187.35 332.5,188.5C 329.155,186.98 327.489,184.313 327.5,180.5C 327.369,179.761 327.536,179.094 328,178.5C 334.895,179.744 341.728,181.077 348.5,182.5C 355.051,181.509 361.718,182.175 368.5,184.5C 372.218,182.12 375.885,182.12 379.5,184.5C 380.949,183.383 382.616,182.716 384.5,182.5C 389.52,183.413 394.187,182.413 398.5,179.5 Z"/></g>
<g><path style="opacity:0.995" fill="#6091e0" d="M 399.5,190.5 C 399.5,195.833 399.5,201.167 399.5,206.5C 390.365,207.049 381.365,206.382 372.5,204.5C 367.162,205.527 361.829,205.36 356.5,204C 355.454,202.461 354.121,202.295 352.5,203.5C 350.945,203.278 349.611,202.611 348.5,201.5C 346.356,202.953 344.523,202.62 343,200.5C 342.283,201.044 341.783,201.711 341.5,202.5C 340.222,202.218 339.222,201.551 338.5,200.5C 337.753,198.035 336.253,196.035 334,194.5C 333.187,192.564 332.687,190.564 332.5,188.5C 331.15,187.35 331.316,186.683 333,186.5C 348.108,188.75 362.941,190.75 377.5,192.5C 378.696,192.154 378.696,191.654 377.5,191C 384.875,191.063 392.208,190.896 399.5,190.5 Z"/></g>
<g><path style="opacity:1" fill="#c6d5f1" d="M 268.5,177.5 C 266.428,180.589 264.761,183.922 263.5,187.5C 262.205,189.965 260.538,191.965 258.5,193.5C 260.803,189.702 262.803,185.702 264.5,181.5C 265.61,179.8 266.943,178.466 268.5,177.5 Z"/></g>
<g><path style="opacity:1" fill="#5c76c3" d="M 144.5,188.5 C 147.496,188.103 150.496,188.77 153.5,190.5C 155.101,189.835 156.601,189.501 158,189.5C 160.026,189.915 161.526,190.915 162.5,192.5C 158.863,199.451 154.863,206.118 150.5,212.5C 148.779,210.306 146.445,209.139 143.5,209C 143.833,208.667 144.167,208.333 144.5,208C 140.44,207.006 136.44,206.839 132.5,207.5C 136.264,200.962 140.264,194.628 144.5,188.5 Z"/></g>
<g><path style="opacity:1" fill="#b5c3e7" d="M 261.5,198.5 C 262.971,200.216 263.971,202.216 264.5,204.5C 262.455,203.077 261.455,201.077 261.5,198.5 Z"/></g>
<g><path style="opacity:0.994" fill="#5569b5" d="M -0.5,185.5 C 0.210041,187.893 0.876708,190.393 1.5,193C 5.72799,194.412 10.0613,195.246 14.5,195.5C 14.5,196.5 14.5,197.5 14.5,198.5C 17.1985,198.466 19.6985,199.133 22,200.5C 25.3549,200.817 28.5216,200.483 31.5,199.5C 32.1924,200.025 32.6924,200.692 33,201.5C 36.1678,200.32 39.3345,200.654 42.5,202.5C 44.6016,202.521 46.7683,202.187 49,201.5C 53.4181,202.653 57.5847,203.986 61.5,205.5C 58.5777,211.686 54.911,217.352 50.5,222.5C 50.5858,221.504 50.2524,220.671 49.5,220C 38.9848,219.301 28.4848,217.467 18,214.5C 15.6388,215.512 12.9722,215.179 10,213.5C 6.4987,214.117 2.9987,213.784 -0.5,212.5C -0.5,203.5 -0.5,194.5 -0.5,185.5 Z"/></g>
<g><path style="opacity:1" fill="#5b77c4" d="M 242.5,191.5 C 247.507,191.751 252.507,192.084 257.5,192.5C 257.087,195.32 258.087,197.32 260.5,198.5C 260.833,198.5 261.167,198.5 261.5,198.5C 261.455,201.077 262.455,203.077 264.5,204.5C 269.903,212.328 274.57,220.662 278.5,229.5C 270.813,226.567 262.813,225.067 254.5,225C 255.337,226.011 255.67,227.178 255.5,228.5C 252.688,224.302 250.022,219.969 247.5,215.5C 245.459,216.707 244.126,218.374 243.5,220.5C 244.21,217.14 242.876,215.307 239.5,215C 238,214.833 236.5,214.667 235,214.5C 232.043,214.693 229.543,215.693 227.5,217.5C 232.01,208.471 237.01,199.804 242.5,191.5 Z"/></g>
<g><path style="opacity:1" fill="#afc2ea" d="M 338.5,200.5 C 339.222,201.551 340.222,202.218 341.5,202.5C 341.629,204.216 341.962,205.883 342.5,207.5C 340.55,205.57 339.217,203.237 338.5,200.5 Z"/></g>
<g><path style="opacity:0.995" fill="#5d82d0" d="M 399.5,206.5 C 399.5,210.167 399.5,213.833 399.5,217.5C 398.566,218.568 398.232,219.901 398.5,221.5C 396.03,220.925 393.696,221.591 391.5,223.5C 383.637,220.85 375.637,219.85 367.5,220.5C 361.8,219.438 356.133,218.604 350.5,218C 351.337,219.011 351.67,220.178 351.5,221.5C 348.482,216.821 345.482,212.154 342.5,207.5C 341.962,205.883 341.629,204.216 341.5,202.5C 341.783,201.711 342.283,201.044 343,200.5C 344.523,202.62 346.356,202.953 348.5,201.5C 349.611,202.611 350.945,203.278 352.5,203.5C 354.121,202.295 355.454,202.461 356.5,204C 361.829,205.36 367.162,205.527 372.5,204.5C 381.365,206.382 390.365,207.049 399.5,206.5 Z"/></g>
<g><path style="opacity:0.995" fill="#5360ad" d="M -0.5,212.5 C 2.9987,213.784 6.4987,214.117 10,213.5C 12.9722,215.179 15.6388,215.512 18,214.5C 28.4848,217.467 38.9848,219.301 49.5,220C 50.2524,220.671 50.5858,221.504 50.5,222.5C 49.3307,225.511 47.664,228.178 45.5,230.5C 44.1286,229.213 42.2953,228.547 40,228.5C 28.0247,227.718 16.1913,226.051 4.5,223.5C 3.26501,224.34 2.26501,225.34 1.5,226.5C 0.833333,223.5 0.166667,220.5 -0.5,217.5C -0.5,215.833 -0.5,214.167 -0.5,212.5 Z"/></g>
<g><path style="opacity:1" fill="#5969b5" d="M 150.5,212.5 C 148.07,217.037 145.403,221.37 142.5,225.5C 142.649,224.448 142.483,223.448 142,222.5C 140.853,223.458 139.853,223.125 139,221.5C 136.199,221.554 133.366,221.554 130.5,221.5C 128.137,222.17 125.804,222.837 123.5,223.5C 126.472,218.184 129.472,212.85 132.5,207.5C 136.44,206.839 140.44,207.006 144.5,208C 144.167,208.333 143.833,208.667 143.5,209C 146.445,209.139 148.779,210.306 150.5,212.5 Z"/></g>
<g><path style="opacity:0.995" fill="#fdfdfe" d="M 255.5,228.5 C 259.068,235.015 262.734,241.515 266.5,248C 267.13,249.31 268.13,250.144 269.5,250.5C 277.029,265.214 285.362,279.547 294.5,293.5C 295.246,294.736 295.579,296.07 295.5,297.5C 296.5,297.5 297.5,297.5 298.5,297.5C 300.223,304.473 303.557,310.64 308.5,316C 310.461,319.393 312.127,322.893 313.5,326.5C 319.292,334.69 324.292,343.357 328.5,352.5C 309.855,368.331 288.855,380.331 265.5,388.5C 264.754,386.657 263.421,385.324 261.5,384.5C 260.103,380.416 258.103,376.75 255.5,373.5C 251.165,366.152 246.832,358.819 242.5,351.5C 239.417,346.116 236.417,340.783 233.5,335.5C 229.618,330.174 225.952,324.841 222.5,319.5C 217.194,310.211 211.528,301.211 205.5,292.5C 204.167,289.167 204.167,285.833 205.5,282.5C 206.404,281.791 206.737,280.791 206.5,279.5C 207.482,278.859 208.482,278.193 209.5,277.5C 215.213,268.009 220.547,258.342 225.5,248.5C 226.5,248.5 227.5,248.5 228.5,248.5C 228.875,244.693 230.208,241.36 232.5,238.5C 235.518,237.145 236.851,234.812 236.5,231.5C 237.376,231.631 238.043,231.298 238.5,230.5C 239.723,226.851 241.39,223.517 243.5,220.5C 244.126,218.374 245.459,216.707 247.5,215.5C 250.022,219.969 252.688,224.302 255.5,228.5 Z"/></g>
<g><path style="opacity:0.992" fill="#5b78c6" d="M 398.5,221.5 C 398.26,225.606 397.593,229.606 396.5,233.5C 394.429,233.498 392.262,233.831 390,234.5C 388.316,232.934 386.316,231.934 384,231.5C 376.263,232.146 368.763,232.313 361.5,232C 360.978,232.561 360.645,233.228 360.5,234C 362.595,236.451 363.595,239.285 363.5,242.5C 359.131,235.747 355.131,228.747 351.5,221.5C 351.67,220.178 351.337,219.011 350.5,218C 356.133,218.604 361.8,219.438 367.5,220.5C 375.637,219.85 383.637,220.85 391.5,223.5C 393.696,221.591 396.03,220.925 398.5,221.5 Z"/></g>
<g><path style="opacity:1" fill="#5b6ab5" d="M 243.5,220.5 C 241.39,223.517 239.723,226.851 238.5,230.5C 238.043,231.298 237.376,231.631 236.5,231.5C 235.207,233.808 233.874,236.142 232.5,238.5C 230.208,241.36 228.875,244.693 228.5,248.5C 227.5,248.5 226.5,248.5 225.5,248.5C 224.737,247.732 223.737,247.232 222.5,247C 227.273,246.727 229.273,244.227 228.5,239.5C 224.563,239.793 220.73,239.46 217,238.5C 216.583,239.756 215.75,240.423 214.5,240.5C 218.441,232.572 222.774,224.905 227.5,217.5C 229.543,215.693 232.043,214.693 235,214.5C 236.5,214.667 238,214.833 239.5,215C 242.876,215.307 244.21,217.14 243.5,220.5 Z"/></g>
<g><path style="opacity:0.999" fill="#5359a6" d="M 45.5,230.5 C 40.9121,239.35 35.5788,247.684 29.5,255.5C 30.1262,252.362 31.4595,249.529 33.5,247C 23.7796,246.161 14.1129,244.994 4.5,243.5C 2.7635,238.089 1.7635,232.422 1.5,226.5C 2.26501,225.34 3.26501,224.34 4.5,223.5C 16.1913,226.051 28.0247,227.718 40,228.5C 42.2953,228.547 44.1286,229.213 45.5,230.5 Z"/></g>
<g><path style="opacity:1" fill="#aeb4d8" d="M 236.5,231.5 C 236.851,234.812 235.518,237.145 232.5,238.5C 233.874,236.142 235.207,233.808 236.5,231.5 Z"/></g>
<g><path style="opacity:1" fill="#5763af" d="M 278.5,229.5 C 283.229,236.07 287.229,243.07 290.5,250.5C 284.843,249.834 279.177,249.168 273.5,248.5C 271.667,248.585 270.334,249.252 269.5,250.5C 268.13,250.144 267.13,249.31 266.5,248C 262.734,241.515 259.068,235.015 255.5,228.5C 255.67,227.178 255.337,226.011 254.5,225C 262.813,225.067 270.813,226.567 278.5,229.5 Z"/></g>
<g><path style="opacity:0.993" fill="#576ab7" d="M 396.5,233.5 C 395.93,240.02 394.596,246.354 392.5,252.5C 386.037,253.526 379.37,253.526 372.5,252.5C 372.5,253.833 372.5,255.167 372.5,256.5C 369.7,251.797 366.7,247.13 363.5,242.5C 363.595,239.285 362.595,236.451 360.5,234C 360.645,233.228 360.978,232.561 361.5,232C 368.763,232.313 376.263,232.146 384,231.5C 386.316,231.934 388.316,232.934 390,234.5C 392.262,233.831 394.429,233.498 396.5,233.5 Z"/></g>
<g><path style="opacity:1" fill="#5459a5" d="M 142.5,225.5 C 137.333,235.174 131.666,244.508 125.5,253.5C 122.814,252.436 119.98,251.436 117,250.5C 114.062,252.861 111.062,252.861 108,250.5C 107.617,251.056 107.117,251.389 106.5,251.5C 111.667,241.826 117.334,232.492 123.5,223.5C 125.804,222.837 128.137,222.17 130.5,221.5C 133.366,221.554 136.199,221.554 139,221.5C 139.853,223.125 140.853,223.458 142,222.5C 142.483,223.448 142.649,224.448 142.5,225.5 Z"/></g>
<g><path style="opacity:0.989" fill="#51509d" d="M 4.5,243.5 C 14.1129,244.994 23.7796,246.161 33.5,247C 31.4595,249.529 30.1262,252.362 29.5,255.5C 25.3297,263.18 20.663,270.513 15.5,277.5C 10.2586,266.773 6.59196,255.44 4.5,243.5 Z"/></g>
<g><path style="opacity:0.996" fill="#5760ad" d="M 392.5,252.5 C 390.465,261.278 387.465,269.612 383.5,277.5C 383.246,274.986 382.413,272.652 381,270.5C 377.692,266.013 374.859,261.346 372.5,256.5C 372.5,255.167 372.5,253.833 372.5,252.5C 379.37,253.526 386.037,253.526 392.5,252.5 Z"/></g>
<g><path style="opacity:1" fill="#53539e" d="M 225.5,248.5 C 220.547,258.342 215.213,268.009 209.5,277.5C 208.482,278.193 207.482,278.859 206.5,279.5C 201.737,278.976 197.07,278.976 192.5,279.5C 199.077,266.006 206.41,253.006 214.5,240.5C 215.75,240.423 216.583,239.756 217,238.5C 220.73,239.46 224.563,239.793 228.5,239.5C 229.273,244.227 227.273,246.727 222.5,247C 223.737,247.232 224.737,247.732 225.5,248.5 Z"/></g>
<g><path style="opacity:1" fill="#bfbfdd" d="M 294.5,255.5 C 296.142,257.971 297.475,260.637 298.5,263.5C 295.873,261.548 294.54,258.881 294.5,255.5 Z"/></g>
<g><path style="opacity:1" fill="#56529e" d="M 290.5,250.5 C 291.691,252.327 293.025,253.993 294.5,255.5C 294.54,258.881 295.873,261.548 298.5,263.5C 310.029,284.714 322.029,305.714 334.5,326.5C 334.5,327.5 334.5,328.5 334.5,329.5C 327.154,330.148 320.154,329.148 313.5,326.5C 312.127,322.893 310.461,319.393 308.5,316C 303.557,310.64 300.223,304.473 298.5,297.5C 297.5,297.5 296.5,297.5 295.5,297.5C 295.579,296.07 295.246,294.736 294.5,293.5C 285.362,279.547 277.029,265.214 269.5,250.5C 270.334,249.252 271.667,248.585 273.5,248.5C 279.177,249.168 284.843,249.834 290.5,250.5 Z"/></g>
<g><path style="opacity:1" fill="#a9a6cd" d="M 205.5,282.5 C 204.167,285.833 204.167,289.167 205.5,292.5C 202.833,289.167 202.833,285.833 205.5,282.5 Z"/></g>
<g><path style="opacity:1" fill="#534d9a" d="M 125.5,253.5 C 106.248,285.669 87.2478,318.002 68.5,350.5C 63.2056,346.873 58.539,342.54 54.5,337.5C 71.3339,308.493 88.6673,279.826 106.5,251.5C 107.117,251.389 107.617,251.056 108,250.5C 111.062,252.861 114.062,252.861 117,250.5C 119.98,251.436 122.814,252.436 125.5,253.5 Z"/></g>
<g><path style="opacity:1" fill="#544c9a" d="M 206.5,279.5 C 206.737,280.791 206.404,281.791 205.5,282.5C 202.833,285.833 202.833,289.167 205.5,292.5C 211.528,301.211 217.194,310.211 222.5,319.5C 223.234,320.708 223.567,322.041 223.5,323.5C 205.172,324.315 186.838,324.481 168.5,324C 169.38,322.644 169.714,321.144 169.5,319.5C 176.665,305.832 184.331,292.499 192.5,279.5C 197.07,278.976 201.737,278.976 206.5,279.5 Z"/></g>
<g><path style="opacity:1" fill="#5c55a4" d="M 169.5,319.5 C 169.714,321.144 169.38,322.644 168.5,324C 186.838,324.481 205.172,324.315 223.5,323.5C 223.567,322.041 223.234,320.708 222.5,319.5C 225.952,324.841 229.618,330.174 233.5,335.5C 233.5,336.5 233.5,337.5 233.5,338.5C 226.168,338.702 219.168,338.368 212.5,337.5C 194.866,339.226 177.533,339.893 160.5,339.5C 160.5,338.167 160.5,336.833 160.5,335.5C 162.997,329.835 165.997,324.502 169.5,319.5 Z"/></g>
<g><path style="opacity:0.979" fill="#645dac" d="M 313.5,326.5 C 320.154,329.148 327.154,330.148 334.5,329.5C 334.5,328.5 334.5,327.5 334.5,326.5C 336.792,331.012 339.459,335.345 342.5,339.5C 338.255,344.289 333.589,348.622 328.5,352.5C 324.292,343.357 319.292,334.69 313.5,326.5 Z"/></g>
<g><path style="opacity:1" fill="#665eb0" d="M 160.5,335.5 C 160.5,336.833 160.5,338.167 160.5,339.5C 177.533,339.893 194.866,339.226 212.5,337.5C 219.168,338.368 226.168,338.702 233.5,338.5C 233.5,337.5 233.5,336.5 233.5,335.5C 236.417,340.783 239.417,346.116 242.5,351.5C 242.5,352.833 242.5,354.167 242.5,355.5C 211.972,355.907 181.472,356.907 151,358.5C 149.624,358.316 148.791,357.649 148.5,356.5C 152.251,349.329 156.251,342.329 160.5,335.5 Z"/></g>
<g><path style="opacity:1" fill="#7169bf" d="M 242.5,351.5 C 246.832,358.819 251.165,366.152 255.5,373.5C 255.5,374.5 255.5,375.5 255.5,376.5C 234.708,377.417 213.875,377.417 193,376.5C 174.216,377.63 155.716,378.463 137.5,379C 138.933,376.305 139.933,373.471 140.5,370.5C 142.664,365.5 145.331,360.833 148.5,356.5C 148.791,357.649 149.624,358.316 151,358.5C 181.472,356.907 211.972,355.907 242.5,355.5C 242.5,354.167 242.5,352.833 242.5,351.5 Z"/></g>
<g><path style="opacity:0.983" fill="#7c74cb" d="M 140.5,370.5 C 139.933,373.471 138.933,376.305 137.5,379C 155.716,378.463 174.216,377.63 193,376.5C 213.875,377.417 234.708,377.417 255.5,376.5C 255.5,375.5 255.5,374.5 255.5,373.5C 258.103,376.75 260.103,380.416 261.5,384.5C 263.421,385.324 264.754,386.657 265.5,388.5C 249.764,393.769 233.764,397.436 217.5,399.5C 205.5,399.5 193.5,399.5 181.5,399.5C 164.179,397.299 147.179,393.299 130.5,387.5C 133.596,381.633 136.929,375.967 140.5,370.5 Z"/></g>
</svg>
